<svg version="1.1" xmlns="http://www.w3.org/2000/svg" style="display: block;" viewBox="0 0 2048 2048" width="1024" height="1024" preserveAspectRatio="none">
<defs>
	<linearGradient id="Gradient1" gradientUnits="userSpaceOnUse" x1="1070.77" y1="610.796" x2="1068.45" y2="613.91">
		<stop class="stop0" offset="0" stop-opacity="1" stop-color="rgb(129,128,128)"/>
		<stop class="stop1" offset="1" stop-opacity="1" stop-color="rgb(158,157,152)"/>
	</linearGradient>
	<linearGradient id="Gradient2" gradientUnits="userSpaceOnUse" x1="1158.1" y1="702.565" x2="1141.9" y2="706.21">
		<stop class="stop0" offset="0" stop-opacity="1" stop-color="rgb(115,112,110)"/>
		<stop class="stop1" offset="1" stop-opacity="1" stop-color="rgb(133,134,136)"/>
	</linearGradient>
	<linearGradient id="Gradient3" gradientUnits="userSpaceOnUse" x1="1097.33" y1="665.116" x2="1107.07" y2="655.829">
		<stop class="stop0" offset="0" stop-opacity="1" stop-color="rgb(138,137,138)"/>
		<stop class="stop1" offset="1" stop-opacity="1" stop-color="rgb(183,180,181)"/>
	</linearGradient>
	<linearGradient id="Gradient4" gradientUnits="userSpaceOnUse" x1="645.483" y1="1210.45" x2="648.618" y2="1205.09">
		<stop class="stop0" offset="0" stop-opacity="1" stop-color="rgb(104,102,103)"/>
		<stop class="stop1" offset="1" stop-opacity="1" stop-color="rgb(176,174,168)"/>
	</linearGradient>
	<linearGradient id="Gradient5" gradientUnits="userSpaceOnUse" x1="1192.67" y1="961.057" x2="1177.62" y2="959.964">
		<stop class="stop0" offset="0" stop-opacity="1" stop-color="rgb(182,178,179)"/>
		<stop class="stop1" offset="1" stop-opacity="1" stop-color="rgb(139,143,140)"/>
	</linearGradient>
	<linearGradient id="Gradient6" gradientUnits="userSpaceOnUse" x1="1169.2" y1="933.866" x2="1183.9" y2="934.156">
		<stop class="stop0" offset="0" stop-opacity="1" stop-color="rgb(138,142,143)"/>
		<stop class="stop1" offset="1" stop-opacity="1" stop-color="rgb(184,182,185)"/>
	</linearGradient>
	<linearGradient id="Gradient7" gradientUnits="userSpaceOnUse" x1="765.486" y1="1207.59" x2="744.13" y2="1253.23">
		<stop class="stop0" offset="0" stop-opacity="1" stop-color="rgb(135,138,156)"/>
		<stop class="stop1" offset="1" stop-opacity="1" stop-color="rgb(201,197,181)"/>
	</linearGradient>
	<linearGradient id="Gradient8" gradientUnits="userSpaceOnUse" x1="1205.14" y1="767.302" x2="1153.77" y2="828.618">
		<stop class="stop0" offset="0" stop-opacity="1" stop-color="rgb(130,124,130)"/>
		<stop class="stop1" offset="1" stop-opacity="1" stop-color="rgb(156,161,155)"/>
	</linearGradient>
	<linearGradient id="Gradient9" gradientUnits="userSpaceOnUse" x1="967.901" y1="1235.5" x2="946.394" y2="1201.29">
		<stop class="stop0" offset="0" stop-opacity="1" stop-color="rgb(110,108,108)"/>
		<stop class="stop1" offset="1" stop-opacity="1" stop-color="rgb(143,142,143)"/>
	</linearGradient>
	<linearGradient id="Gradient10" gradientUnits="userSpaceOnUse" x1="500.503" y1="710.773" x2="524.415" y2="742.796">
		<stop class="stop0" offset="0" stop-opacity="1" stop-color="rgb(137,137,133)"/>
		<stop class="stop1" offset="1" stop-opacity="1" stop-color="rgb(169,167,164)"/>
	</linearGradient>
	<linearGradient id="Gradient11" gradientUnits="userSpaceOnUse" x1="883.639" y1="1313.61" x2="886.186" y2="1260.99">
		<stop class="stop0" offset="0" stop-opacity="1" stop-color="rgb(111,110,112)"/>
		<stop class="stop1" offset="1" stop-opacity="1" stop-color="rgb(135,132,134)"/>
	</linearGradient>
	<linearGradient id="Gradient12" gradientUnits="userSpaceOnUse" x1="870.7" y1="1349.02" x2="878.809" y2="1247.14">
		<stop class="stop0" offset="0" stop-opacity="1" stop-color="rgb(54,50,71)"/>
		<stop class="stop1" offset="1" stop-opacity="1" stop-color="rgb(96,84,91)"/>
	</linearGradient>
</defs>
<path transform="translate(0,0)" fill="rgb(29,31,49)" d="M 236.422 718.254 C 230.923 722.141 228.29 724.515 221.854 726.788 L 219.756 726.188 C 218.656 721.897 221.365 716.318 223.861 712.7 C 335.386 551.213 507.099 418.537 699.835 372.555 C 800.667 348.499 907.559 347.991 1009.67 363.689 C 1045.48 369.193 1082.53 376.437 1118.25 382.629 C 1122.5 383.366 1134.84 372.689 1140.61 370.16 C 1159.35 375.271 1171.67 386.672 1187.03 397.986 L 1227.23 427.123 C 1316.97 493.91 1403.74 564.611 1487.27 639.023 C 1542.98 689.608 1597.49 741.497 1650.76 794.647 C 1666.57 810.177 1684.49 825.684 1699.2 842.365 C 1713.16 858.21 1727.58 871.768 1743.02 885.998 C 1778.25 923.068 1813.3 960.362 1848.82 997.176 L 1918.82 1069.48 C 1935.04 1086.52 1963.61 1114.57 1971.49 1136.24 C 1953.46 1211.77 1935.97 1322.57 1864.79 1368.79 C 1849.6 1377.63 1832.68 1385.41 1816.56 1392.46 C 1790.98 1403.66 1763.4 1418.57 1737.41 1428 C 1709.01 1438.3 1663.16 1464.58 1634.85 1468.46 C 1625.33 1459.6 1617.6 1444.54 1610.71 1433.34 C 1604.46 1423.29 1598.07 1413.32 1591.54 1403.45 C 1557.74 1351.22 1513.8 1286.98 1467.82 1245.48 C 1451.87 1231.08 1434.59 1219.21 1416.84 1207.21 C 1408.62 1201.65 1385.26 1184.83 1375.85 1185.85 C 1367.67 1186.74 1295.3 1248.57 1283.29 1257.79 C 1165.63 1348.13 1023.27 1423.67 872.824 1434 C 838.178 1436.38 804.48 1434.61 769.975 1431.39 C 671.464 1421.45 575.976 1391.71 489.249 1343.94 C 382.37 1286.17 303.689 1209.11 232.166 1112.39 C 206.11 1078.47 184.022 1039.94 153.941 1009.35 C 136.665 991.777 113.255 976.8 92.5282 963.693 C 77.8699 954.424 61.3582 948.323 52.4576 933.004 C 53.7293 930.011 55.7518 925.159 58.155 922.969 C 114.511 871.595 172.207 821.348 229.753 771.261 C 239.385 762.877 248.908 754.486 258.724 746.451 C 245.137 738.149 243.414 732.106 236.422 718.254 z"/>
<path transform="translate(0,0)" fill="rgb(164,144,162)" d="M 236.422 718.254 C 431.744 528.494 602.129 389.601 888.169 394.061 C 944.88 394.945 1004.05 400.649 1059.74 411.322 C 1035.92 421.633 1011.92 431.546 987.76 441.055 C 980.76 443.86 954.561 454.686 948.364 455.355 C 925.841 457.786 897.458 451.95 874.131 450.521 C 843.768 448.66 821.968 451.45 792.556 454.551 C 684.037 465.989 591.398 510.682 499.268 567.307 C 455.429 593.848 413.168 622.912 372.698 654.353 C 338.962 680.578 306.619 708.742 273.045 735.188 C 268.381 738.862 263.559 743.102 258.724 746.451 C 245.137 738.149 243.414 732.106 236.422 718.254 z"/>
<path transform="translate(0,0)" fill="rgb(184,183,179)" d="M 1145.09 416.453 C 1154.09 421.91 1167.67 432.684 1176.47 439.279 C 1192.66 451.18 1208.74 463.235 1224.7 475.442 C 1290.86 526.314 1355.65 578.945 1419 633.278 C 1438.08 649.722 1464.57 677.277 1483.08 691.367 C 1446.59 704.196 1410.2 717.294 1373.91 730.66 C 1361.05 735.339 1340.79 744.865 1328.27 747.239 C 1319.13 738.408 1310.54 725.667 1302.07 715.698 C 1237.54 639.766 1175.72 561.46 1107.42 488.811 C 1104.92 486.15 1099.21 481.643 1095.45 481.551 C 1093.06 485.597 1096.89 494.403 1099.48 497.751 C 1127.12 533.469 1148.86 575.382 1177.17 610.092 C 1180.42 614.049 1192.21 628.216 1194.14 631.819 C 1202.49 639.1 1212.27 652.892 1219.18 661.92 C 1243.5 693.736 1263.57 730.991 1287.01 762.975 C 1276.57 759.129 1256.28 746.285 1248.58 738.003 L 1245.22 739.453 C 1272.95 768.291 1300.64 797.488 1328.25 826.453 C 1339.56 838.307 1352.79 855.47 1363.61 868.361 L 1422.3 937.501 L 1524.73 1056.02 C 1574.36 1114.68 1624.39 1173 1674.82 1230.98 C 1663.72 1254.58 1653.77 1272.91 1645.29 1297.78 C 1635.68 1325.94 1630.97 1352.77 1623.44 1381.18 C 1614.32 1365.54 1603.08 1350.17 1593.48 1335.6 C 1520.52 1224.81 1401.67 1109.69 1257.29 1132.86 C 1254.08 1133.37 1248.29 1134.71 1245.25 1134.82 C 1224.5 1140.32 1215.33 1144.08 1196.48 1153.59 C 1258.5 1135.26 1311.96 1155.83 1369.11 1180.36 C 1337.07 1193.94 1304.99 1208.78 1274.55 1225.72 C 1232.85 1248.93 1194.52 1277.53 1153.83 1301.55 C 1014.1 1384.03 871.118 1412.61 711.765 1380.96 C 656.066 1370.29 601.909 1352.74 550.54 1328.71 C 411.338 1265.23 319.865 1173.68 235.444 1047.42 C 235.623 1047.56 220.27 1027.53 218.973 1025.95 C 203.93 1007.36 188.131 989.396 171.615 972.101 C 162.082 962.248 148.979 952.271 138.319 943.477 C 131.711 938.027 122.372 932.101 116.925 925.656 C 120.144 918.765 148.295 896.169 155.967 889.182 C 241.459 810.703 330.212 735.852 421.99 664.827 C 441.744 649.82 483.97 617.684 505.024 608.127 L 505.852 607.694 C 523.796 598.11 541.517 584.4 559.406 574.041 C 655.607 518.334 769.74 481.568 881.903 488.716 C 949.884 493.048 936.845 499.064 1001.39 474.007 C 1035.73 460.798 1069.89 447.122 1103.86 432.982 C 1114.21 428.7 1135.57 419.009 1145.09 416.453 z"/>
<path transform="translate(0,0)" fill="rgb(164,144,162)" d="M 235.444 1047.42 C 240.615 1048.2 259.532 1066.57 264.768 1071.32 C 294.061 1097.88 323.642 1117.02 355.2 1139.49 L 357.567 1136.18 C 385.323 1162.67 487.631 1226.03 524.088 1237.58 C 547.706 1251.62 646.305 1285.59 674.567 1289.92 C 681.298 1291.82 705.252 1297.81 711.736 1297.95 C 718.709 1299.89 726.22 1301.01 733.32 1302.31 C 806.99 1315.81 884.845 1319.01 957.966 1300.63 C 976.121 1296.07 994.295 1289.23 1011.87 1282.42 C 1025.28 1275.24 1033.72 1274.18 1048.34 1264.32 L 1047.38 1262.98 C 1071.39 1247.03 1092.49 1227.65 1114.24 1208.87 C 1122.67 1205.35 1133.13 1189.98 1139.24 1186.72 C 1148.1 1181.99 1161.1 1170.03 1168.1 1166.33 C 1185.52 1157.12 1226.59 1132.57 1245.25 1134.82 C 1224.5 1140.32 1215.33 1144.08 1196.48 1153.59 C 1258.5 1135.26 1311.96 1155.83 1369.11 1180.36 C 1337.07 1193.94 1304.99 1208.78 1274.55 1225.72 C 1232.85 1248.93 1194.52 1277.53 1153.83 1301.55 C 1014.1 1384.03 871.118 1412.61 711.765 1380.96 C 656.066 1370.29 601.909 1352.74 550.54 1328.71 C 411.338 1265.23 319.865 1173.68 235.444 1047.42 z"/>
<path transform="translate(0,0)" fill="rgb(29,31,49)" d="M 357.567 1136.18 C 385.323 1162.67 487.631 1226.03 524.088 1237.58 C 547.706 1251.62 646.305 1285.59 674.567 1289.92 C 681.298 1291.82 705.252 1297.81 711.736 1297.95 C 718.709 1299.89 726.22 1301.01 733.32 1302.31 C 806.99 1315.81 884.845 1319.01 957.966 1300.63 C 976.121 1296.07 994.295 1289.23 1011.87 1282.42 C 1013.61 1290.64 994.033 1296.41 988.034 1300.03 C 907.926 1348.43 812.778 1345.93 723.632 1330.93 C 714.28 1329.36 698.691 1325.33 690.165 1328.67 C 578.782 1298.46 477.864 1250 392.253 1171.71 C 379.724 1160.26 369.583 1148.71 355.2 1139.49 L 357.567 1136.18 z"/>
<path transform="translate(0,0)" fill="url(#Gradient12)" d="M 1048.34 1264.32 C 1050.82 1262.64 1053.54 1261.1 1056.12 1259.56 L 1056.13 1261.12 C 1038 1275.35 1019.9 1288.93 1000.16 1301 C 926.589 1346.02 850.323 1351.68 766.739 1342.15 C 740.394 1339.14 715.903 1335.45 690.165 1328.67 C 698.691 1325.33 714.28 1329.36 723.632 1330.93 C 812.778 1345.93 907.926 1348.43 988.034 1300.03 C 994.033 1296.41 1013.61 1290.64 1011.87 1282.42 C 1025.28 1275.24 1033.72 1274.18 1048.34 1264.32 z"/>
<path transform="translate(0,0)" fill="rgb(116,108,121)" d="M 1056.12 1259.56 C 1058.56 1257.07 1061.01 1254.34 1064.43 1254.05 C 1062.85 1257.58 1059.65 1259.07 1056.13 1261.12 L 1056.12 1259.56 z"/>
<path transform="translate(0,0)" fill="rgb(116,108,121)" d="M 235.444 1047.42 C 235.623 1047.56 220.27 1027.53 218.973 1025.95 C 203.93 1007.36 188.131 989.396 171.615 972.101 C 162.082 962.248 148.979 952.271 138.319 943.477 C 131.711 938.027 122.372 932.101 116.925 925.656 C 120.144 918.765 148.295 896.169 155.967 889.182 C 241.459 810.703 330.212 735.852 421.99 664.827 C 441.744 649.82 483.97 617.684 505.024 608.127 C 504.818 608.42 504.616 608.716 504.406 609.005 C 495.497 621.308 469.195 638.532 456.388 649.191 C 436.154 666.031 416.318 683.667 396.632 701.147 C 357.631 735.777 213.2 890.6 219.067 936.342 C 220.209 945.247 225.842 955.036 229.715 963.115 C 252.273 1010.16 283.742 1060.86 318.994 1099.57 C 329.923 1111.58 348.884 1124.27 357.567 1136.18 L 355.2 1139.49 C 323.642 1117.02 294.061 1097.88 264.768 1071.32 C 259.532 1066.57 240.615 1048.2 235.444 1047.42 z"/>
<path transform="translate(0,0)" fill="rgb(103,99,105)" d="M 1182.67 665.912 C 1172.51 652.911 1167.66 623.435 1158.02 607.525 C 1157.2 606.168 1157.47 606.681 1157.81 604.761 C 1161.9 605.686 1160.27 611.618 1166.84 614.012 C 1169.95 614.749 1170.9 615.548 1173.58 617.2 C 1174.84 620.22 1175.68 621.288 1178.91 621.719 L 1179.35 620.131 C 1176.84 616.176 1174.89 614.333 1177.17 610.092 C 1180.42 614.049 1192.21 628.216 1194.14 631.819 C 1202.49 639.1 1212.27 652.892 1219.18 661.92 C 1243.5 693.736 1263.57 730.991 1287.01 762.975 C 1276.57 759.129 1256.28 746.285 1248.58 738.003 L 1245.22 739.453 C 1242.7 737.393 1231.61 724.88 1228.84 721.752 C 1212.5 703.336 1196.12 686.645 1182.67 665.912 z"/>
<path transform="translate(0,0)" fill="rgb(82,77,87)" d="M 1182.67 665.912 L 1182.54 664.166 C 1182.35 662.012 1182.3 661.807 1181.27 659.83 L 1182.23 658.42 C 1186.54 661.925 1195.95 680.654 1201.72 687.23 C 1211.6 698.48 1221.62 709.148 1231.99 719.993 C 1237.05 725.279 1245.25 732.261 1248.58 738.003 L 1245.22 739.453 C 1242.7 737.393 1231.61 724.88 1228.84 721.752 C 1212.5 703.336 1196.12 686.645 1182.67 665.912 z"/>
<path transform="translate(0,0)" fill="rgb(139,136,137)" d="M 1166.84 614.012 C 1169.95 614.749 1170.9 615.548 1173.58 617.2 C 1174.84 620.22 1175.68 621.288 1178.91 621.719 L 1179.35 620.131 C 1176.84 616.176 1174.89 614.333 1177.17 610.092 C 1180.42 614.049 1192.21 628.216 1194.14 631.819 C 1195.55 640.38 1201.6 641.937 1205.24 650.102 C 1201.06 649.351 1170.77 619.349 1166.84 614.012 z"/>
<path transform="translate(0,0)" fill="url(#Gradient11)" d="M 736.817 1298.41 C 835.285 1314.12 929.014 1314.19 1021.16 1271.48 C 1032.05 1266.43 1038.19 1261.86 1048.15 1255.18 L 1048.65 1255.95 C 1043.73 1259.6 1038.16 1265.3 1032.52 1267 L 1032.37 1268.3 L 1034.08 1269.72 C 1038.26 1269.53 1043.58 1265.4 1047.38 1262.98 L 1048.34 1264.32 C 1033.72 1274.18 1025.28 1275.24 1011.87 1282.42 C 994.295 1289.23 976.121 1296.07 957.966 1300.63 C 884.845 1319.01 806.99 1315.81 733.32 1302.31 C 726.22 1301.01 718.709 1299.89 711.736 1297.95 C 722.281 1296.19 732.657 1303.27 736.817 1298.41 z"/>
<path transform="translate(0,0)" fill="rgb(139,136,137)" d="M 524.088 1237.58 C 532.751 1237.69 599.151 1264.64 614.335 1268.96 C 638.861 1275.93 663.041 1283.89 689.469 1288.57 C 681.866 1291.2 680.724 1288.76 674.567 1289.92 C 646.305 1285.59 547.706 1251.62 524.088 1237.58 z"/>
<path transform="translate(0,0)" fill="rgb(103,99,105)" d="M 689.469 1288.57 C 705.288 1292.3 721.144 1294.82 736.817 1298.41 C 732.657 1303.27 722.281 1296.19 711.736 1297.95 C 705.252 1297.81 681.298 1291.82 674.567 1289.92 C 680.724 1288.76 681.866 1291.2 689.469 1288.57 z"/>
<path transform="translate(0,0)" fill="rgb(82,77,87)" d="M 684.875 565.798 C 772.822 525.889 834.805 526.096 928.42 544.249 C 932.815 543.338 942.056 547.472 949.116 548.072 L 946.308 546.948 C 956.119 548.38 984.509 557.24 991.874 562.619 C 1004.35 564.455 1039.84 588.616 1050.03 597.239 C 1056.31 598.272 1078.34 612.925 1081.33 617.551 C 1099.58 630.238 1108.93 642.14 1122.73 659.098 C 1126.03 663.15 1132.78 671.601 1136.39 675.009 C 1145.94 684.388 1157.78 701.266 1162.62 713.843 C 1169.31 727.498 1181.47 747.791 1177.1 762.29 C 1179.85 769.995 1193.96 807.472 1194.4 813.013 C 1204.84 835.362 1202.46 896.361 1201.32 923.599 C 1203.49 935.856 1204.8 944.728 1203.39 957.29 L 1202.66 957.784 L 1202.62 958.346 C 1201.22 947.231 1201.43 936.915 1200.11 925.784 C 1198.78 939.391 1196.08 949.667 1194.15 962.719 C 1195.03 978.285 1187.26 994.679 1181.78 1009.09 C 1178.18 1018.65 1171.22 1039.1 1164.51 1045.9 C 1157.96 1056.82 1152.32 1068.26 1147.66 1080.12 L 1144.88 1078.48 C 1141.77 1079.92 1139.43 1082.74 1139.9 1086.39 L 1138.01 1087.99 C 1134.23 1094.17 1130.44 1100.85 1125.49 1106.14 C 1110.91 1123.06 1101.22 1132.87 1086.13 1148.14 C 1059.28 1175.33 1055.09 1188.13 1019.29 1204.43 C 995.657 1218.9 906.421 1242.71 879.513 1239.97 C 872.777 1241.12 865.479 1242.21 858.894 1243.85 C 818.738 1254.38 763.246 1246.54 723.044 1239.39 C 703.981 1235.55 676.319 1226.81 658.829 1217.51 C 649.824 1215.49 626.082 1200.3 619.473 1192.53 L 618.72 1191.67 C 563.359 1150.77 547.076 1140.56 513.15 1079 L 512.211 1079.17 L 509.036 1079.4 C 496.805 1072.14 485.604 1040.38 479.48 1026.78 C 475.814 1018.63 472.331 1010.22 474.546 1001.34 C 470.775 992.889 468.737 976.021 467.94 966.864 C 461.05 919.003 460.339 891.351 469.655 843.37 C 471.471 834.018 471.417 821.768 473.398 812.358 C 475.879 800.579 480.804 787.688 484.732 776.135 C 492.23 748.505 510.639 706.257 531.319 686.077 C 536.289 681.082 541.838 674.631 548.669 672.998 C 556.541 665.022 563.499 655.419 572.131 647.855 C 576.896 643.892 579.253 641.661 583.556 637.183 C 578.964 636.479 572.669 641.169 568.395 643.773 C 581.522 633.807 593.115 622.517 606.727 612.07 C 613.466 605.191 635.823 592.453 644.917 586.244 C 646.946 576.269 674.268 565.497 684.875 565.798 z"/>
<path transform="translate(0,0)" fill="rgb(29,31,49)" d="M 684.875 565.798 C 772.822 525.889 834.805 526.096 928.42 544.249 C 922.813 548.098 919.087 543.157 911.173 547.328 C 904.301 549.047 902.472 545.593 894.935 549.017 C 884.713 548.523 875.695 544.944 864.508 544.835 C 860.332 544.867 853.664 544.796 849.773 545.726 C 835.525 549.129 821.381 547.953 807.067 549.215 C 788.146 550.882 768.649 553.826 750.099 558.005 C 658.194 578.684 578.308 642.534 528.257 721.286 C 503.76 759.833 485.952 815.394 481.688 861.076 C 479.096 888.852 480.661 916.535 483.612 944.199 C 485.13 958.436 486.511 973.197 489.744 987.166 C 507.606 1064.34 565.748 1138.08 632.665 1179.46 C 653.228 1192.18 674.05 1203.85 696.878 1212.13 C 703.664 1214.59 730.204 1219.4 733.787 1222.29 C 733.801 1224.43 733.927 1223.59 732.865 1225.61 C 739.208 1224.31 748.377 1226.39 755.017 1227.5 C 761.059 1228.56 775.811 1230.12 780.069 1232.16 C 782.038 1231.52 782.146 1230.1 782.82 1228.44 C 806.034 1232.29 826.476 1231 849.287 1229.7 C 895.458 1228.14 932.215 1217.13 973.952 1198.87 C 1010.86 1182.71 1030.58 1166.5 1060.9 1140.64 C 1084.53 1120.47 1104.73 1098.56 1122.77 1073.11 C 1127.68 1066.18 1130.66 1055.83 1135.03 1048.41 C 1138.38 1042.7 1142.21 1036.15 1144.99 1030.2 C 1176.2 962.086 1184.95 885.814 1169.97 812.405 C 1160.63 765.545 1146.92 735.851 1120.34 696.391 C 1118.63 693.849 1118 691.124 1118.14 688.098 C 1115.52 683.957 1109.72 675.818 1105.89 672.852 L 1097.5 661.362 L 1098.91 660.821 C 1100.68 662.27 1102.31 663.587 1103.97 665.168 L 1105.35 662.079 C 1113.35 670.401 1130.43 692.975 1135.25 703.09 L 1137.65 704.445 L 1139.06 701.849 L 1141.27 700.209 C 1147.44 710.034 1152.49 718.467 1157.64 728.92 L 1158.47 730.212 L 1159.73 729.68 C 1162 730.074 1161.28 730.252 1163.3 729.709 C 1161.52 725.55 1156.24 716.253 1158.53 712.508 L 1162.62 713.843 C 1169.31 727.498 1181.47 747.791 1177.1 762.29 C 1179.85 769.995 1193.96 807.472 1194.4 813.013 C 1204.84 835.362 1202.46 896.361 1201.32 923.599 C 1203.49 935.856 1204.8 944.728 1203.39 957.29 L 1202.66 957.784 L 1202.62 958.346 C 1201.22 947.231 1201.43 936.915 1200.11 925.784 C 1198.78 939.391 1196.08 949.667 1194.15 962.719 C 1195.03 978.285 1187.26 994.679 1181.78 1009.09 C 1178.18 1018.65 1171.22 1039.1 1164.51 1045.9 C 1157.96 1056.82 1152.32 1068.26 1147.66 1080.12 L 1144.88 1078.48 C 1141.77 1079.92 1139.43 1082.74 1139.9 1086.39 L 1138.01 1087.99 C 1134.23 1094.17 1130.44 1100.85 1125.49 1106.14 C 1110.91 1123.06 1101.22 1132.87 1086.13 1148.14 C 1059.28 1175.33 1055.09 1188.13 1019.29 1204.43 C 995.657 1218.9 906.421 1242.71 879.513 1239.97 C 872.777 1241.12 865.479 1242.21 858.894 1243.85 C 818.738 1254.38 763.246 1246.54 723.044 1239.39 C 703.981 1235.55 676.319 1226.81 658.829 1217.51 C 649.824 1215.49 626.082 1200.3 619.473 1192.53 L 618.72 1191.67 C 563.359 1150.77 547.076 1140.56 513.15 1079 L 512.211 1079.17 L 509.036 1079.4 C 496.805 1072.14 485.604 1040.38 479.48 1026.78 C 475.814 1018.63 472.331 1010.22 474.546 1001.34 C 470.775 992.889 468.737 976.021 467.94 966.864 C 461.05 919.003 460.339 891.351 469.655 843.37 C 471.471 834.018 471.417 821.768 473.398 812.358 C 475.879 800.579 480.804 787.688 484.732 776.135 C 492.23 748.505 510.639 706.257 531.319 686.077 C 536.289 681.082 541.838 674.631 548.669 672.998 C 556.541 665.022 563.499 655.419 572.131 647.855 C 576.896 643.892 579.253 641.661 583.556 637.183 C 578.964 636.479 572.669 641.169 568.395 643.773 C 581.522 633.807 593.115 622.517 606.727 612.07 C 613.466 605.191 635.823 592.453 644.917 586.244 C 646.946 576.269 674.268 565.497 684.875 565.798 z"/>
<path transform="translate(0,0)" fill="rgb(103,99,105)" d="M 548.669 672.998 C 556.541 665.022 563.499 655.419 572.131 647.855 L 574.645 650.07 C 572.453 655.813 562.158 666.985 557.879 672.402 C 534.808 701.611 518.498 724.086 504.616 759.353 C 503.875 759.216 503.134 759.078 502.393 758.941 L 500.443 754.203 C 499.465 756.296 496.469 762.286 495.833 764.14 C 493.893 768.441 491.292 775.841 487.686 778.165 L 484.732 776.135 C 492.23 748.505 510.639 706.257 531.319 686.077 C 536.289 681.082 541.838 674.631 548.669 672.998 z"/>
<path transform="translate(0,0)" fill="url(#Gradient10)" d="M 531.319 686.077 L 541.579 683.312 C 523.563 701.155 510.454 730.679 500.443 754.203 C 499.465 756.296 496.469 762.286 495.833 764.14 C 493.893 768.441 491.292 775.841 487.686 778.165 L 484.732 776.135 C 492.23 748.505 510.639 706.257 531.319 686.077 z"/>
<path transform="translate(0,0)" fill="rgb(139,136,137)" d="M 531.319 686.077 C 536.289 681.082 541.838 674.631 548.669 672.998 L 541.579 683.312 L 531.319 686.077 z"/>
<path transform="translate(0,0)" fill="rgb(29,31,49)" d="M 1122.97 1100.43 C 1123.11 1101.71 1123.42 1103.6 1123.29 1104.78 L 1125.49 1106.14 C 1110.91 1123.06 1101.22 1132.87 1086.13 1148.14 C 1059.28 1175.33 1055.09 1188.13 1019.29 1204.43 L 1019.17 1202.62 C 1021.03 1201.42 1023.89 1199.95 1025.9 1198.83 C 1023.07 1196.89 1021.59 1195.6 1020.63 1192.34 L 1015.93 1194.34 L 1013.85 1192.44 L 1012.53 1192.01 C 1013.82 1189.24 1024.77 1181.87 1028.13 1179.37 C 1054.08 1164.3 1102.86 1123.54 1122.97 1100.43 z"/>
<path transform="translate(0,0)" fill="rgb(184,183,179)" d="M 1122.97 1100.43 C 1123.11 1101.71 1123.42 1103.6 1123.29 1104.78 C 1115.85 1110.82 1110.84 1118.35 1104.58 1124.59 C 1096.77 1132.4 1078.68 1149.48 1069.89 1155.16 C 1056.15 1165.88 1029.8 1186.17 1013.85 1192.44 L 1012.53 1192.01 C 1013.82 1189.24 1024.77 1181.87 1028.13 1179.37 C 1054.08 1164.3 1102.86 1123.54 1122.97 1100.43 z"/>
<path transform="translate(0,0)" fill="rgb(103,99,105)" d="M 1013.85 1192.44 C 1029.8 1186.17 1056.15 1165.88 1069.89 1155.16 L 1072.89 1155.91 C 1070 1165.16 1048.58 1177.86 1047.87 1180.25 C 1047.77 1189.07 1033.08 1195.21 1025.9 1198.83 C 1023.07 1196.89 1021.59 1195.6 1020.63 1192.34 L 1015.93 1194.34 L 1013.85 1192.44 z"/>
<path transform="translate(0,0)" fill="rgb(184,183,179)" d="M 1020.63 1192.34 C 1028.73 1188.4 1035.88 1182.03 1043.87 1178.6 C 1045.21 1178.02 1046.11 1179.15 1047.87 1180.25 C 1047.77 1189.07 1033.08 1195.21 1025.9 1198.83 C 1023.07 1196.89 1021.59 1195.6 1020.63 1192.34 z"/>
<path transform="translate(0,0)" fill="url(#Gradient9)" d="M 1001.17 1199.75 L 996.405 1199.83 C 986.521 1199.98 981.445 1204.38 971.889 1205.05 L 972.079 1203.64 C 985.706 1197.78 1017.36 1179.71 1028.13 1179.37 C 1024.77 1181.87 1013.82 1189.24 1012.53 1192.01 L 1013.85 1192.44 L 1015.93 1194.34 L 1020.63 1192.34 C 1021.59 1195.6 1023.07 1196.89 1025.9 1198.83 C 1023.89 1199.95 1021.03 1201.42 1019.17 1202.62 L 1019.29 1204.43 C 995.657 1218.9 906.421 1242.71 879.513 1239.97 C 896.359 1233.44 923.496 1229 942.247 1223.24 C 965.102 1216.22 979.685 1209.19 1001.17 1199.75 z"/>
<path transform="translate(0,0)" fill="rgb(184,183,179)" d="M 988.939 1212.35 C 996.989 1209.2 1009.84 1201.61 1017.09 1201.73 C 1013.79 1205.63 993.833 1214.58 988.697 1213.91 L 988.939 1212.35 z"/>
<path transform="translate(0,0)" fill="rgb(184,183,179)" d="M 1015.93 1194.34 L 1020.63 1192.34 C 1021.59 1195.6 1023.07 1196.89 1025.9 1198.83 C 1023.89 1199.95 1021.03 1201.42 1019.17 1202.62 L 1017.09 1201.73 C 1017.09 1201.06 1017.13 1201.61 1016.63 1199.46 C 1014.66 1198.75 1014.19 1198.73 1012.16 1198.56 L 1010.18 1198.41 L 1009.81 1197.57 L 1010.56 1197.89 L 1011.82 1195.9 L 1011.2 1197.8 L 1011.77 1197.78 L 1012.45 1195.52 C 1013.57 1195.19 1014.81 1194.73 1015.93 1194.34 z"/>
<path transform="translate(0,0)" fill="url(#Gradient8)" d="M 1163.3 729.709 C 1161.52 725.55 1156.24 716.253 1158.53 712.508 L 1162.62 713.843 C 1169.31 727.498 1181.47 747.791 1177.1 762.29 C 1179.85 769.995 1193.96 807.472 1194.4 813.013 C 1193.58 823.522 1203.02 861.474 1197.96 876.079 C 1197.51 871.734 1198.33 868.89 1196.79 864.36 L 1195.18 864.079 L 1193.6 865.685 C 1191.87 861.698 1187.55 831.545 1186.29 825.17 C 1184.48 816.034 1182.6 809.476 1179.89 800.291 C 1176.92 797.871 1176.14 797.532 1174.54 793.975 C 1174.8 785.412 1171.76 778.109 1169.16 769.846 L 1171.71 765.422 C 1168.55 751.767 1164.09 742.974 1158.47 730.212 L 1159.73 729.68 C 1162 730.074 1161.28 730.252 1163.3 729.709 z"/>
<path transform="translate(0,0)" fill="rgb(139,136,137)" d="M 1163.3 729.709 C 1161.52 725.55 1156.24 716.253 1158.53 712.508 L 1162.62 713.843 C 1169.31 727.498 1181.47 747.791 1177.1 762.29 C 1175.45 759.981 1168.43 737.74 1163.3 729.709 z"/>
<path transform="translate(0,0)" fill="rgb(57,55,61)" d="M 1171.71 765.422 C 1173.82 777.616 1177.99 787.4 1179.89 800.291 C 1176.92 797.871 1176.14 797.532 1174.54 793.975 C 1174.8 785.412 1171.76 778.109 1169.16 769.846 L 1171.71 765.422 z"/>
<path transform="translate(0,0)" fill="url(#Gradient7)" d="M 672.366 1216.71 C 678.918 1215.78 712.396 1228.08 721.698 1230.62 C 733.216 1234.07 753.743 1241 765.327 1238.21 C 772.792 1240.03 775.962 1240.47 783.642 1241.16 C 796.258 1243.87 833.43 1239.2 840.82 1243.62 C 845.296 1243.71 849.575 1242.74 854.008 1241.98 C 855.841 1242.82 857.004 1243.58 858.894 1243.85 C 818.738 1254.38 763.246 1246.54 723.044 1239.39 C 703.981 1235.55 676.319 1226.81 658.829 1217.51 C 663.408 1217.41 666.275 1218.88 670.593 1220.46 L 672.366 1216.71 z"/>
<path transform="translate(0,0)" fill="rgb(82,77,87)" d="M 723.893 1237.05 C 751.579 1242.58 773.29 1246.69 801.973 1246.13 C 814.774 1245.89 828.969 1243.67 840.82 1243.62 C 845.296 1243.71 849.575 1242.74 854.008 1241.98 C 855.841 1242.82 857.004 1243.58 858.894 1243.85 C 818.738 1254.38 763.246 1246.54 723.044 1239.39 L 723.893 1237.05 z"/>
<path transform="translate(0,0)" fill="rgb(57,55,61)" d="M 658.829 1217.51 C 663.408 1217.41 666.275 1218.88 670.593 1220.46 C 687.554 1227.01 706.286 1232.39 723.893 1237.05 L 723.044 1239.39 C 703.981 1235.55 676.319 1226.81 658.829 1217.51 z"/>
<path transform="translate(0,0)" fill="rgb(29,31,49)" d="M 1097.5 661.362 L 1098.91 660.821 C 1100.68 662.27 1102.31 663.587 1103.97 665.168 L 1105.35 662.079 C 1113.35 670.401 1130.43 692.975 1135.25 703.09 L 1137.65 704.445 L 1139.06 701.849 L 1141.27 700.209 C 1147.44 710.034 1152.49 718.467 1157.64 728.92 L 1158.47 730.212 C 1164.09 742.974 1168.55 751.767 1171.71 765.422 L 1169.16 769.846 C 1171.76 778.109 1174.8 785.412 1174.54 793.975 C 1164.43 768.724 1155.52 742.707 1140.02 720.287 C 1132.65 709.631 1125.46 698.795 1118.14 688.098 C 1115.52 683.957 1109.72 675.818 1105.89 672.852 L 1097.5 661.362 z"/>
<path transform="translate(0,0)" fill="rgb(139,136,137)" d="M 1097.5 661.362 L 1098.91 660.821 C 1100.68 662.27 1102.31 663.587 1103.97 665.168 C 1116.86 679.413 1123.64 691.59 1134.14 703.918 C 1142.5 718.042 1151.33 731.129 1159.06 745.404 C 1163.15 752.97 1165.98 761.841 1169.16 769.846 C 1171.76 778.109 1174.8 785.412 1174.54 793.975 C 1164.43 768.724 1155.52 742.707 1140.02 720.287 C 1132.65 709.631 1125.46 698.795 1118.14 688.098 C 1115.52 683.957 1109.72 675.818 1105.89 672.852 L 1097.5 661.362 z"/>
<path transform="translate(0,0)" fill="rgb(139,136,137)" d="M 467.94 966.864 C 477.253 970.161 480.026 995.565 482.578 1004.69 C 488.385 1021.24 492.647 1032.04 500.662 1047.86 C 497.407 1049.15 498.395 1048.05 496.899 1050.55 C 497.838 1058.19 508.154 1070.15 512.211 1079.17 L 509.036 1079.4 C 496.805 1072.14 485.604 1040.38 479.48 1026.78 C 475.814 1018.63 472.331 1010.22 474.546 1001.34 C 470.775 992.889 468.737 976.021 467.94 966.864 z"/>
<path transform="translate(0,0)" fill="rgb(82,77,87)" d="M 467.94 966.864 C 477.253 970.161 480.026 995.565 482.578 1004.69 C 479.846 1010.51 484.418 1015.7 485.606 1025.06 L 484.325 1024.96 C 481.137 1016.9 478.099 1009.27 474.546 1001.34 C 470.775 992.889 468.737 976.021 467.94 966.864 z"/>
<path transform="translate(0,0)" fill="rgb(103,99,105)" d="M 644.917 586.244 C 646.946 576.269 674.268 565.497 684.875 565.798 C 681.544 567.598 678.088 569.542 674.737 571.263 C 674.466 573.268 674.501 576.599 672.493 577.679 C 650.47 589.512 629.931 602.951 610.376 618.525 C 604.743 623.011 597.715 628.663 591.683 632.371 C 596.111 624.384 605.826 616.484 606.727 612.07 C 613.466 605.191 635.823 592.453 644.917 586.244 z"/>
<path transform="translate(0,0)" fill="rgb(139,136,137)" d="M 644.917 586.244 C 646.946 576.269 674.268 565.497 684.875 565.798 C 681.544 567.598 678.088 569.542 674.737 571.263 C 664.733 574.659 654.412 581.947 644.917 586.244 z"/>
<path transform="translate(0,0)" fill="url(#Gradient6)" d="M 1166.28 997.992 C 1178.21 968.3 1178.18 939.381 1181.21 907.926 C 1182.57 893.849 1182.07 879.179 1183.99 865.243 C 1189.26 903.928 1187.01 949.438 1175.18 986.696 L 1175.87 990.923 C 1174.27 996.417 1173.02 999.98 1172.61 1005.77 L 1172.14 1005.79 C 1169.27 1005.19 1168.41 1005.67 1165.61 1006.46 L 1164.66 1006.74 L 1163.09 1005.06 C 1164.05 1002.75 1165.23 1000.29 1166.28 997.992 z"/>
<path transform="translate(0,0)" fill="rgb(103,99,105)" d="M 1175.18 986.696 L 1175.87 990.923 C 1174.27 996.417 1173.02 999.98 1172.61 1005.77 L 1172.14 1005.79 C 1169.27 1005.19 1168.41 1005.67 1165.61 1006.46 L 1164.66 1006.74 L 1163.09 1005.06 C 1164.05 1002.75 1165.23 1000.29 1166.28 997.992 L 1167.61 999.319 C 1170.84 997.949 1173.49 990.447 1175.18 986.696 z"/>
<path transform="translate(0,0)" fill="rgb(57,55,61)" d="M 750.099 558.005 C 746.59 558.001 740.303 559.47 738.512 558.31 L 739.934 556.723 C 749.067 554.295 766.443 547.701 774.61 546.375 C 797.536 542.653 841.631 542.158 864.508 544.835 C 860.332 544.867 853.664 544.796 849.773 545.726 C 835.525 549.129 821.381 547.953 807.067 549.215 C 788.146 550.882 768.649 553.826 750.099 558.005 z"/>
<path transform="translate(0,0)" fill="rgb(57,55,61)" d="M 1201.32 923.599 C 1203.49 935.856 1204.8 944.728 1203.39 957.29 L 1202.66 957.784 L 1202.62 958.346 C 1201.22 947.231 1201.43 936.915 1200.11 925.784 C 1198.78 939.391 1196.08 949.667 1194.15 962.719 C 1195.03 978.285 1187.26 994.679 1181.78 1009.09 L 1178.98 1003.28 C 1177.88 1007.03 1176.79 1011.79 1174.72 1014.98 C 1174.46 1011.87 1174.38 1011.22 1174.65 1007.99 C 1184.62 980.227 1194.41 956.66 1196.92 927.225 L 1198.1 928.98 L 1199.23 928.588 L 1201.32 923.599 z"/>
<path transform="translate(0,0)" fill="rgb(139,136,137)" d="M 1178.98 1003.28 C 1185.2 988.277 1186.32 977.12 1194.15 962.719 C 1195.03 978.285 1187.26 994.679 1181.78 1009.09 L 1178.98 1003.28 z"/>
<path transform="translate(0,0)" fill="url(#Gradient5)" d="M 1175.87 990.923 C 1181.6 974.386 1186.29 956.883 1190.3 939.835 C 1191.82 933.359 1192.98 922.79 1196.34 917.487 C 1197.2 920.153 1196.92 924.221 1196.92 927.225 C 1194.41 956.66 1184.62 980.227 1174.65 1007.99 L 1172.61 1005.77 C 1173.02 999.98 1174.27 996.417 1175.87 990.923 z"/>
<path transform="translate(0,0)" fill="rgb(103,99,105)" d="M 1174.65 1007.99 C 1174.38 1011.22 1174.46 1011.87 1174.72 1014.98 C 1176.79 1011.79 1177.88 1007.03 1178.98 1003.28 L 1181.78 1009.09 C 1178.18 1018.65 1171.22 1039.1 1164.51 1045.9 C 1158.27 1035.97 1162.11 1032.57 1166.48 1021.94 C 1169.48 1016.72 1170.52 1011.61 1172.14 1005.79 L 1172.61 1005.77 L 1174.65 1007.99 z"/>
<path transform="translate(0,0)" fill="rgb(82,77,87)" d="M 1166.48 1021.94 C 1166.1 1021.8 1165.74 1021.6 1165.35 1021.53 C 1157.23 1020.06 1149.23 1055.38 1138.66 1064.37 C 1137.77 1060.16 1149.62 1040.77 1151.54 1036.13 C 1155.69 1026.05 1159.43 1015.33 1163.09 1005.06 L 1164.66 1006.74 L 1165.61 1006.46 C 1168.41 1005.67 1169.27 1005.19 1172.14 1005.79 C 1170.52 1011.61 1169.48 1016.72 1166.48 1021.94 z"/>
<path transform="translate(0,0)" fill="url(#Gradient4)" d="M 619.473 1192.53 C 630.955 1197.25 641.04 1202.79 652.91 1206.64 C 657.295 1209.61 667.291 1216.25 672.366 1216.71 L 670.593 1220.46 C 666.275 1218.88 663.408 1217.41 658.829 1217.51 C 649.824 1215.49 626.082 1200.3 619.473 1192.53 z"/>
<path transform="translate(0,0)" fill="rgb(103,99,105)" d="M 512.211 1079.17 C 508.154 1070.15 497.838 1058.19 496.899 1050.55 C 498.395 1048.05 497.407 1049.15 500.662 1047.86 C 509.117 1065.83 528.771 1090.48 534.98 1104.57 C 524.849 1094.75 520.337 1084.06 514.135 1077.93 L 513.15 1079 L 512.211 1079.17 z"/>
<path transform="translate(0,0)" fill="rgb(139,136,137)" d="M 721.698 1230.62 C 733.344 1229.44 755.978 1232.67 765.327 1238.21 C 753.743 1241 733.216 1234.07 721.698 1230.62 z"/>
<path transform="translate(0,0)" fill="rgb(184,183,179)" d="M 732.865 1225.61 C 739.208 1224.31 748.377 1226.39 755.017 1227.5 C 761.059 1228.56 775.811 1230.12 780.069 1232.16 C 767.748 1233.57 743.559 1232.29 732.865 1225.61 z"/>
<path transform="translate(0,0)" fill="rgb(103,99,105)" d="M 618.72 1191.67 C 621.874 1192.09 623.083 1192.33 626.166 1193.14 L 626.901 1192.57 L 625.016 1189.19 L 625.643 1188.4 C 633.385 1189.49 646.444 1201.29 652.91 1206.64 C 641.04 1202.79 630.955 1197.25 619.473 1192.53 L 618.72 1191.67 z"/>
<path transform="translate(0,0)" fill="rgb(57,55,61)" d="M 1122.97 1100.43 C 1126.83 1092.85 1129.79 1089.33 1138.01 1087.99 C 1134.23 1094.17 1130.44 1100.85 1125.49 1106.14 L 1123.29 1104.78 C 1123.42 1103.6 1123.11 1101.71 1122.97 1100.43 z"/>
<path transform="translate(0,0)" fill="rgb(103,99,105)" d="M 783.642 1241.16 C 794.55 1241.05 846.203 1239.98 854.008 1241.98 C 849.575 1242.74 845.296 1243.71 840.82 1243.62 C 833.43 1239.2 796.258 1243.87 783.642 1241.16 z"/>
<path transform="translate(0,0)" fill="rgb(82,77,87)" d="M 500.443 754.203 L 502.393 758.941 C 503.134 759.078 503.875 759.216 504.616 759.353 C 503.129 763.196 501.446 769.062 498.823 771.692 C 497.993 769.149 497.627 767.752 497.063 765.134 L 495.833 764.14 C 496.469 762.286 499.465 756.296 500.443 754.203 z"/>
<path transform="translate(0,0)" fill="rgb(184,183,179)" d="M 1193.6 865.685 L 1195.18 864.079 L 1196.79 864.36 C 1198.33 868.89 1197.51 871.734 1197.96 876.079 L 1197.09 878.151 C 1197.95 881.454 1198.05 881.264 1197.49 884.586 C 1194.18 879.388 1194.01 871.737 1193.6 865.685 z"/>
<path transform="translate(0,0)" fill="rgb(57,55,61)" d="M 583.556 637.183 C 582.697 645.003 582.6 647.498 574.645 650.07 L 572.131 647.855 C 576.896 643.892 579.253 641.661 583.556 637.183 z"/>
<path transform="translate(0,0)" fill="rgb(139,136,137)" d="M 660.184 1202.08 C 665.381 1201.95 712.137 1220.75 716.005 1223.73 C 700.461 1224.96 673.997 1209.97 660.184 1202.08 z"/>
<path transform="translate(0,0)" fill="rgb(139,136,137)" d="M 483.167 809.627 C 486.118 813.212 477.234 855.941 476.446 865.336 C 475.55 864.617 475.466 864.132 474.833 863.036 C 474.577 847.94 476.932 823.265 483.167 809.627 z"/>
<path transform="translate(0,0)" fill="rgb(103,99,105)" d="M 473.45 911.504 C 475.314 916.449 478.018 948.132 478.744 955.472 L 477.357 955.568 C 473.094 938.493 472.34 928.952 473.45 911.504 z"/>
<path transform="translate(0,0)" fill="rgb(103,99,105)" d="M 474.258 867.25 C 474.948 867.551 475.854 868.246 476.516 868.698 C 477.084 873.875 476.101 879.357 475.471 884.594 C 474.776 884.487 474.172 884.053 473.538 883.749 C 472.747 878.566 473.72 872.575 474.258 867.25 z"/>
<path transform="translate(0,0)" fill="rgb(29,31,49)" d="M 990.74 564.251 L 991.874 562.619 C 1004.35 564.455 1039.84 588.616 1050.03 597.239 C 1056.31 598.272 1078.34 612.925 1081.33 617.551 C 1099.58 630.238 1108.93 642.14 1122.73 659.098 C 1126.03 663.15 1132.78 671.601 1136.39 675.009 C 1145.94 684.388 1157.78 701.266 1162.62 713.843 L 1158.53 712.508 C 1156.24 716.253 1161.52 725.55 1163.3 729.709 C 1161.28 730.252 1162 730.074 1159.73 729.68 L 1158.47 730.212 L 1157.64 728.92 C 1152.49 718.467 1147.44 710.034 1141.27 700.209 L 1139.06 701.849 L 1137.65 704.445 L 1135.25 703.09 C 1130.43 692.975 1113.35 670.401 1105.35 662.079 L 1103.97 665.168 C 1102.31 663.587 1100.68 662.27 1098.91 660.821 L 1097.5 661.362 C 1096.17 657.608 1092.4 656.519 1088.23 651.795 L 1085.71 648.378 C 1085.08 640.55 1082.23 641.496 1079.05 634.33 C 1071.29 625.738 1049.19 611.453 1039.06 605.385 L 1041.49 602.189 C 1024.02 593.621 1006.74 580.15 986.688 570.224 L 987.358 568.515 C 990.881 570.473 1000.73 575.82 1004.15 573.398 C 1002.27 570.569 994.102 566.322 990.74 564.251 z"/>
<path transform="translate(0,0)" fill="url(#Gradient3)" d="M 1041.49 602.189 C 1072.53 619.764 1114.97 656.849 1136.16 685.541 L 1136.94 684.055 C 1133.17 679.418 1133.87 679.495 1136.39 675.009 C 1145.94 684.388 1157.78 701.266 1162.62 713.843 L 1158.53 712.508 C 1156.24 716.253 1161.52 725.55 1163.3 729.709 C 1161.28 730.252 1162 730.074 1159.73 729.68 L 1158.47 730.212 L 1157.64 728.92 C 1152.49 718.467 1147.44 710.034 1141.27 700.209 L 1139.06 701.849 L 1137.65 704.445 L 1135.25 703.09 C 1130.43 692.975 1113.35 670.401 1105.35 662.079 L 1103.97 665.168 C 1102.31 663.587 1100.68 662.27 1098.91 660.821 L 1097.5 661.362 C 1096.17 657.608 1092.4 656.519 1088.23 651.795 L 1085.71 648.378 C 1085.08 640.55 1082.23 641.496 1079.05 634.33 C 1071.29 625.738 1049.19 611.453 1039.06 605.385 L 1041.49 602.189 z"/>
<path transform="translate(0,0)" fill="url(#Gradient2)" d="M 1136.39 675.009 C 1145.94 684.388 1157.78 701.266 1162.62 713.843 L 1158.53 712.508 C 1156.24 716.253 1161.52 725.55 1163.3 729.709 C 1161.28 730.252 1162 730.074 1159.73 729.68 L 1158.47 730.212 L 1157.64 728.92 C 1160.53 722.108 1150.22 707.848 1146.83 700.584 C 1144.23 695.456 1139.75 690.178 1136.16 685.541 L 1136.94 684.055 C 1133.17 679.418 1133.87 679.495 1136.39 675.009 z"/>
<path transform="translate(0,0)" fill="rgb(103,99,105)" d="M 1136.94 684.055 C 1141.1 688.19 1146.23 692.651 1149 697.659 L 1148.93 699.84 C 1148.23 700.088 1147.53 700.336 1146.83 700.584 C 1144.23 695.456 1139.75 690.178 1136.16 685.541 L 1136.94 684.055 z"/>
<path transform="translate(0,0)" fill="rgb(57,55,61)" d="M 1079.05 634.33 C 1085.36 639.616 1101.43 655.501 1105.35 662.079 L 1103.97 665.168 C 1102.31 663.587 1100.68 662.27 1098.91 660.821 L 1097.5 661.362 C 1096.17 657.608 1092.4 656.519 1088.23 651.795 L 1085.71 648.378 C 1085.08 640.55 1082.23 641.496 1079.05 634.33 z"/>
<path transform="translate(0,0)" fill="rgb(103,99,105)" d="M 1139.06 701.849 C 1137.14 698.582 1136.06 697.324 1135.6 693.525 C 1137.99 694.52 1139.54 697.707 1141.27 700.209 L 1139.06 701.849 z"/>
<path transform="translate(0,0)" fill="url(#Gradient1)" d="M 1050.03 597.239 C 1056.31 598.272 1078.34 612.925 1081.33 617.551 C 1081.76 620.937 1086.08 625.135 1088.51 627.988 C 1077.9 622.224 1056.96 607.128 1050.03 597.239 z"/>
<path transform="translate(0,0)" fill="rgb(139,136,137)" d="M 928.42 544.249 C 932.815 543.338 942.056 547.472 949.116 548.072 L 946.308 546.948 C 956.119 548.38 984.509 557.24 991.874 562.619 L 990.74 564.251 C 994.102 566.322 1002.27 570.569 1004.15 573.398 C 1000.73 575.82 990.881 570.473 987.358 568.515 L 986.688 570.224 C 1006.74 580.15 1024.02 593.621 1041.49 602.189 L 1039.06 605.385 C 1034.4 603.302 1029.34 599.382 1024.75 596.649 C 995.022 578.961 963.657 558.094 929.161 551.686 C 922.915 550.526 917.181 549.049 911.173 547.328 C 919.087 543.157 922.813 548.098 928.42 544.249 z"/>
<path transform="translate(0,0)" fill="rgb(184,183,179)" d="M 966.516 558.5 L 967.319 556.822 C 972.774 556.095 985.919 561.575 990.74 564.251 C 994.102 566.322 1002.27 570.569 1004.15 573.398 C 1000.73 575.82 990.881 570.473 987.358 568.515 C 982.919 565.442 971.745 560.154 966.516 558.5 z"/>
<path transform="translate(0,0)" fill="rgb(82,77,87)" d="M 966.516 558.5 C 971.745 560.154 982.919 565.442 987.358 568.515 L 986.688 570.224 C 980.248 567.038 971.775 563.204 966.516 558.5 z"/>
<path transform="translate(0,0)" fill="rgb(29,31,49)" d="M 894.935 549.017 C 902.472 545.593 904.301 549.047 911.173 547.328 C 917.181 549.049 922.915 550.526 929.161 551.686 C 963.657 558.094 995.022 578.961 1024.75 596.649 C 1029.34 599.382 1034.4 603.302 1039.06 605.385 C 1049.19 611.453 1071.29 625.738 1079.05 634.33 C 1082.23 641.496 1085.08 640.55 1085.71 648.378 L 1088.23 651.795 L 1086.9 654.617 C 1070.78 637.752 1055.55 621.763 1036.49 608.076 C 994.37 577.825 945.999 557.406 894.935 549.017 z"/>
<path transform="translate(0,0)" fill="rgb(57,55,61)" d="M 755.017 1227.5 L 755.769 1225.37 C 759.502 1223.77 779.433 1227.19 782.82 1228.44 C 782.146 1230.1 782.038 1231.52 780.069 1232.16 C 775.811 1230.12 761.059 1228.56 755.017 1227.5 z"/>
<path transform="translate(0,0)" fill="rgb(29,31,49)" d="M 1088.23 651.795 C 1092.4 656.519 1096.17 657.608 1097.5 661.362 L 1105.89 672.852 C 1098.52 669.076 1092.22 660.934 1086.9 654.617 L 1088.23 651.795 z"/>
<path transform="translate(0,0)" fill="rgb(29,31,49)" d="M 845.153 772.418 C 897.568 769.627 942.403 809.675 945.524 862.071 C 948.644 914.466 908.879 959.553 856.504 963.003 C 803.661 966.484 758.083 926.285 754.935 873.421 C 751.786 820.558 792.271 775.234 845.153 772.418 z"/>
<path transform="translate(0,0)" fill="rgb(82,77,87)" d="M 1139.9 1086.39 C 1139.43 1082.74 1141.77 1079.92 1144.88 1078.48 L 1147.66 1080.12 C 1136.99 1108.65 1124.64 1121.7 1104.07 1142.82 L 1102.66 1143.21 C 1105.58 1134.78 1146.22 1097.92 1139.9 1086.39 z"/>
<path transform="translate(0,0)" fill="rgb(184,183,179)" d="M 1515.58 718.962 C 1519.95 719.961 1557.74 757.941 1564.55 764.607 C 1618.16 816.648 1671.18 869.278 1723.63 922.487 C 1787.9 989.265 1851.43 1056.75 1914.2 1124.94 C 1906.47 1128.16 1898.72 1130.3 1890.79 1132.93 C 1837.5 1150.6 1785.98 1174.52 1733.7 1195.02 L 1703.7 1207.42 C 1679.98 1177.19 1651.07 1144.81 1626.05 1114.96 C 1572.36 1050.07 1517.91 985.821 1462.71 922.217 C 1430.86 885.265 1399.93 847.745 1368.57 810.394 C 1361.37 801.825 1354.12 793.804 1347.87 784.479 C 1392.96 765.246 1439.99 749.38 1485.57 731.276 C 1495.76 727.224 1505.66 723.746 1515.58 718.962 z"/>
<path transform="translate(0,0)" fill="rgb(29,31,49)" d="M 1515.09 770.202 C 1519.6 772.676 1585.31 852.116 1589.78 858.961 C 1566.29 865.518 1542.01 875.776 1518.88 883.771 C 1507.79 887.605 1496.7 892.28 1485.24 894.867 C 1478.89 892.353 1422.13 817.436 1411.59 805.637 C 1406.99 800.48 1426.49 798.534 1428.07 798.056 C 1446.4 792.508 1464.64 786.428 1482.94 780.78 C 1493.57 777.501 1504.36 772.572 1515.09 770.202 z"/>
<path transform="translate(0,0)" fill="rgb(184,183,179)" d="M 1912.58 1164.96 L 1915.12 1165.1 C 1921.12 1176.53 1904.61 1238.53 1899.16 1251.39 C 1888.97 1275.47 1870.45 1316.25 1850.28 1333.72 C 1834.9 1347.05 1796.81 1358.76 1777.34 1368.35 C 1739.57 1386.15 1700.53 1400.01 1662.99 1417.07 L 1661 1417.62 L 1659.95 1416.14 C 1659.72 1408.82 1662.67 1396.06 1663.84 1388.36 C 1670.12 1345.95 1681.36 1307.25 1701.04 1269.12 C 1711.33 1245.77 1727.3 1239.25 1750.05 1230.32 C 1804.01 1209.13 1857.41 1183.14 1912.58 1164.96 z"/>
<path transform="translate(0,0)" fill="rgb(29,31,49)" d="M 1872.16 1203.83 C 1876.08 1204.54 1879 1207.68 1879.59 1211.61 C 1883.53 1237.95 1869.23 1268.05 1856.89 1290.63 C 1852.04 1299.51 1844.55 1309.52 1836.76 1315.85 C 1830.24 1320.54 1822.71 1323.86 1815.33 1326.96 C 1778.86 1342.26 1743.39 1361.99 1704.81 1371.5 C 1701.57 1371.27 1693.95 1370.31 1694 1366.24 C 1694.24 1348.08 1701.17 1325.9 1707.82 1308.58 C 1713.16 1294.68 1723.63 1273.47 1733.75 1262.23 C 1756.47 1247.48 1793.91 1237.69 1819.68 1226.38 C 1837.45 1218.58 1855.42 1210.88 1872.16 1203.83 z"/>
<path transform="translate(0,0)" fill="rgb(82,77,87)" d="M 1868.65 1215.09 C 1869.28 1215.56 1869.69 1215.72 1869.72 1216.46 C 1870.06 1240.77 1859.21 1263.76 1847.85 1284.29 C 1833.11 1310.96 1822.49 1313.79 1796.69 1325.61 C 1766.09 1339.63 1738.95 1351.62 1706.21 1360.09 C 1705.71 1359.64 1705.49 1359.52 1705.2 1358.84 C 1702.06 1351.46 1717.31 1311.35 1721.11 1303.29 C 1726.72 1291.37 1733.55 1276.44 1743.56 1267.49 C 1750.62 1261.19 1853.99 1220.39 1868.65 1215.09 z"/>
</svg>